<svg data-v-fde0c5aa="" xmlns="http://www.w3.org/2000/svg" viewBox="0 110 300 80" class="iconLeft"><!----><defs data-v-fde0c5aa=""><!----></defs><rect data-v-fde0c5aa="" fill="#0000" x="0" y="0" width="300px" height="300px" class="logo-background-square"></rect><defs data-v-fde0c5aa=""><!----></defs><g data-v-fde0c5aa="" id="43c7e076-ec48-4567-9781-7678ed21f7d7" fill="#0C203C" transform="matrix(3.3303065719172564,0,0,3.3303065719172564,113.43321594025318,127.85346177315441)"><path d="M0.70 12.02L0.70 12.02L0.70 1.27L0.70 1.27Q0.70 1.05 0.92 1.05L0.92 1.05L6.08 1.05L6.08 1.05Q6.30 1.05 6.30 1.27L6.30 1.27L6.30 2.67L6.30 2.67Q6.30 2.78 6.24 2.84L6.24 2.84L6.24 2.84Q6.18 2.90 6.08 2.90L6.08 2.90L2.60 2.90L2.60 5.71L5.24 5.71L5.24 5.71Q5.46 5.71 5.46 5.93L5.46 5.93L5.46 7.33L5.46 7.33Q5.46 7.56 5.24 7.56L5.24 7.56L2.60 7.56L2.60 12.02L2.60 12.02Q2.60 12.13 2.54 12.19L2.54 12.19L2.54 12.19Q2.48 12.25 2.38 12.25L2.38 12.25L0.92 12.25L0.92 12.25Q0.70 12.25 0.70 12.02ZM7.70 12.02L7.70 12.02L7.70 2.67L7.70 2.67Q7.70 2.45 7.92 2.45L7.92 2.45L11.29 2.45L11.29 2.45Q12.28 2.45 12.79 2.97L12.79 2.97L12.79 2.97Q13.30 3.49 13.30 4.48L13.30 4.48L13.30 10.23L13.30 10.23Q13.30 11.22 12.79 11.74L12.79 11.74L12.79 11.74Q12.28 12.25 11.29 12.25L11.29 12.25L7.92 12.25L7.92 12.25Q7.70 12.25 7.70 12.02ZM9.60 4.30L9.60 10.40L10.89 10.40L10.89 10.40Q11.45 10.40 11.45 9.84L11.45 9.84L11.45 4.87L11.45 4.87Q11.45 4.30 10.89 4.30L10.89 4.30L9.60 4.30ZM14.56 10.23L14.56 10.23L14.56 4.46L14.56 4.46Q14.56 3.47 15.07 2.96L15.07 2.96L15.07 2.96Q15.59 2.45 16.58 2.45L16.58 2.45L18.15 2.45L18.15 2.45Q19.14 2.45 19.65 2.96L19.65 2.96L19.65 2.96Q20.17 3.47 20.17 4.46L20.17 4.46L20.17 10.23L20.17 10.23Q20.17 11.22 19.65 11.74L19.65 11.74L19.65 11.74Q19.14 12.25 18.15 12.25L18.15 12.25L16.58 12.25L16.58 12.25Q15.59 12.25 15.07 11.74L15.07 11.74L15.07 11.74Q14.56 11.22 14.56 10.23ZM16.39 4.82L16.39 9.88L16.39 9.88Q16.39 10.45 16.95 10.45L16.95 10.45L17.84 10.45L17.84 10.45Q18.40 10.45 18.40 9.88L18.40 9.88L18.40 4.82L18.40 4.82Q18.40 4.26 17.84 4.26L17.84 4.26L16.95 4.26L16.95 4.26Q16.39 4.26 16.39 4.82L16.39 4.82ZM22.29 11.98L21 2.74L21 2.74Q20.99 2.71 20.99 2.67L20.99 2.67L20.99 2.67Q20.99 2.45 21.27 2.45L21.27 2.45L22.59 2.45L22.59 2.45Q22.84 2.45 22.88 2.71L22.88 2.71L23.56 8.57L23.63 8.57L25.01 2.69L25.01 2.69Q25.07 2.45 25.31 2.45L25.31 2.45L26.17 2.45L26.17 2.45Q26.41 2.45 26.48 2.69L26.48 2.69L27.85 8.57L27.92 8.57L28.64 2.71L28.64 2.71Q28.68 2.45 28.93 2.45L28.93 2.45L30.24 2.45L30.24 2.45Q30.52 2.45 30.52 2.67L30.52 2.67L30.52 2.67Q30.52 2.70 30.51 2.74L30.51 2.74L29.16 12.00L29.16 12.00Q29.12 12.25 28.85 12.25L28.85 12.25L27.34 12.25L27.34 12.25Q27.10 12.25 27.04 12.00L27.04 12.00L25.75 6.25L24.45 12.00L24.45 12.00Q24.38 12.25 24.14 12.25L24.14 12.25L22.60 12.25L22.60 12.25Q22.33 12.25 22.29 11.98L22.29 11.98ZM31.73 12.02L31.73 12.02L31.73 2.67L31.73 2.67Q31.73 2.57 31.79 2.51L31.79 2.51L31.79 2.51Q31.86 2.45 31.96 2.45L31.96 2.45L33.07 2.45L33.07 2.45Q33.24 2.45 33.32 2.63L33.32 2.63L35.95 7.98L35.95 2.67L35.95 2.67Q35.95 2.45 36.18 2.45L36.18 2.45L37.49 2.45L37.49 2.45Q37.59 2.45 37.65 2.51L37.65 2.51L37.65 2.51Q37.71 2.57 37.71 2.67L37.71 2.67L37.71 12.02L37.71 12.02Q37.71 12.13 37.65 12.19L37.65 12.19L37.65 12.19Q37.59 12.25 37.49 12.25L37.49 12.25L36.38 12.25L36.38 12.25Q36.21 12.25 36.13 12.07L36.13 12.07L33.50 6.72L33.50 12.02L33.50 12.02Q33.50 12.25 33.28 12.25L33.28 12.25L31.96 12.25L31.96 12.25Q31.86 12.25 31.79 12.19L31.79 12.19L31.79 12.19Q31.73 12.13 31.73 12.02ZM39.11 2.67L39.11 12.02L39.11 12.02Q39.11 12.25 39.33 12.25L39.33 12.25L43.78 12.25L43.78 12.25Q44.01 12.25 44.01 12.02L44.01 12.02L44.01 10.62L44.01 10.62Q44.01 10.40 43.78 10.40L43.78 10.40L41.02 10.40L41.02 2.67L41.02 2.67Q41.02 2.45 40.79 2.45L40.79 2.45L39.33 2.45L39.33 2.45Q39.23 2.45 39.17 2.51L39.17 2.51L39.17 2.51Q39.11 2.57 39.11 2.67L39.11 2.67Z"></path></g><defs data-v-fde0c5aa=""><linearGradient data-v-fde0c5aa="" gradientTransform="rotate(25)" id="650d8bad-6a04-4568-8072-41ab2c69c02b" x1="0%" y1="0%" x2="100%" y2="0%"><stop data-v-fde0c5aa="" offset="0%" stop-color="#288B58" stop-opacity="1"></stop><stop data-v-fde0c5aa="" offset="100%" stop-color="#1522F1" stop-opacity="1"></stop></linearGradient></defs><g data-v-fde0c5aa="" id="27878cc8-30aa-472d-a66d-f852f47560bf" stroke="none" fill="url(#650d8bad-6a04-4568-8072-41ab2c69c02b)" transform="matrix(0.7861670380844077,0,0,0.7861670380844077,32.006254132563676,109.039518413128)"><path d="M65.059 58.477c.781.781 1.805 1.172 2.828 1.172s2.047-.391 2.828-1.172a4 4 0 0 0 0-5.656L58.757 40.863a3.925 3.925 0 0 0-.62-.506c-.066-.044-.139-.073-.208-.113-.157-.092-.313-.184-.483-.254-.086-.036-.176-.053-.265-.083-.159-.053-.315-.11-.483-.143-.117-.023-.237-.024-.356-.036-.14-.015-.274-.042-.417-.042-.156 0-.303.029-.455.046-.105.012-.211.011-.316.032-.182.036-.354.097-.525.156-.073.025-.148.039-.221.068a4.04 4.04 0 0 0-.549.288c-.046.028-.096.047-.142.077a4.013 4.013 0 0 0-.634.521L41.135 52.82a4 4 0 1 0 5.656 5.656l5.133-5.132v30.341a4 4 0 0 0 8 0V53.343l5.135 5.134z"></path><path d="M59.119 16.518c-11.967 0-22.84 6.983-27.907 17.646-11.696.537-21.044 10.221-21.044 22.048 0 12.169 9.898 22.069 22.068 22.069h11.762a4 4 0 0 0 0-8H32.236c-7.758 0-14.068-6.312-14.068-14.069 0-7.759 6.311-14.071 14.068-14.071.355 0 .744.02 1.258.065l3.062.271 1.05-2.889c3.274-9.014 11.921-15.07 21.514-15.07 12.617 0 22.883 10.265 22.883 22.882 0 9.534-6.006 18.161-14.942 21.468a4 4 0 1 0 2.777 7.502C81.9 71.907 90.004 60.265 90.004 47.4c-.002-17.029-13.857-30.882-30.885-30.882z"></path></g><!----></svg>