<svg data-v-fde0c5aa="" xmlns="http://www.w3.org/2000/svg" viewBox="39 120 65 60" class="iconLeft"><!----><defs data-v-fde0c5aa=""><!----></defs><rect data-v-fde0c5aa="" fill="#0000" x="0" y="0" width="300px" height="300px" class="logo-background-square"></rect><defs data-v-fde0c5aa=""><!----></defs><g data-v-fde0c5aa="" id="43c7e076-ec48-4567-9781-7678ed21f7d7" fill="#0C203C" transform="matrix(3.3303065719172564,0,0,3.3303065719172564,113.43321594025318,127.85346177315441)"></g><defs data-v-fde0c5aa=""><linearGradient data-v-fde0c5aa="" gradientTransform="rotate(25)" id="650d8bad-6a04-4568-8072-41ab2c69c02b" x1="0%" y1="0%" x2="100%" y2="0%"><stop data-v-fde0c5aa="" offset="0%" stop-color="#288B58" stop-opacity="1"></stop><stop data-v-fde0c5aa="" offset="100%" stop-color="#1522F1" stop-opacity="1"></stop></linearGradient></defs><g data-v-fde0c5aa="" id="27878cc8-30aa-472d-a66d-f852f47560bf" stroke="none" fill="url(#650d8bad-6a04-4568-8072-41ab2c69c02b)" transform="matrix(0.7861670380844077,0,0,0.7861670380844077,32.006254132563676,109.039518413128)"><path d="M65.059 58.477c.781.781 1.805 1.172 2.828 1.172s2.047-.391 2.828-1.172a4 4 0 0 0 0-5.656L58.757 40.863a3.925 3.925 0 0 0-.62-.506c-.066-.044-.139-.073-.208-.113-.157-.092-.313-.184-.483-.254-.086-.036-.176-.053-.265-.083-.159-.053-.315-.11-.483-.143-.117-.023-.237-.024-.356-.036-.14-.015-.274-.042-.417-.042-.156 0-.303.029-.455.046-.105.012-.211.011-.316.032-.182.036-.354.097-.525.156-.073.025-.148.039-.221.068a4.04 4.04 0 0 0-.549.288c-.046.028-.096.047-.142.077a4.013 4.013 0 0 0-.634.521L41.135 52.82a4 4 0 1 0 5.656 5.656l5.133-5.132v30.341a4 4 0 0 0 8 0V53.343l5.135 5.134z"></path><path d="M59.119 16.518c-11.967 0-22.84 6.983-27.907 17.646-11.696.537-21.044 10.221-21.044 22.048 0 12.169 9.898 22.069 22.068 22.069h11.762a4 4 0 0 0 0-8H32.236c-7.758 0-14.068-6.312-14.068-14.069 0-7.759 6.311-14.071 14.068-14.071.355 0 .744.02 1.258.065l3.062.271 1.05-2.889c3.274-9.014 11.921-15.07 21.514-15.07 12.617 0 22.883 10.265 22.883 22.882 0 9.534-6.006 18.161-14.942 21.468a4 4 0 1 0 2.777 7.502C81.9 71.907 90.004 60.265 90.004 47.4c-.002-17.029-13.857-30.882-30.885-30.882z"></path></g><!----></svg>